# xmcd
#
# Track frame offsets:
#	150
#	9213
#	18248
#	27317
#	36354
#	45407
#	54452
#	63503
#	72532
#	81591
#	90648
#	99705
#	108800
#	117853
#	126898
#	135943
#	144996
#	154053
#	163138
#	172181
#	181212
#	190277
#	199336
#	208765
#	217808
#	226859
#	235900
#	244955
#	254004
#	263043
#	272096
#	281143
#	290186
#	299239
#	308284
#	317327
#	326368
#	335415
#	344456
#
# Disc length: 4713 seconds
#
# Revision: 0
# Processed by: cddbd v1.4PL0 Copyright (c) Steve Scherf et al.
# Submitted via: audiograbber 1.82.02
#
DISCID=4c126727
DTITLE=Various Artist - DJ LRM - Instrumental World V. 14 (We Are The Streets)
DYEAR=2003
DGENRE=Hip-Hop
TTITLE0=Dinero and Kernal - Freestyle (Backdraft Ent.)
TTITLE1=Clipse - The Funeral
TTITLE2=Clipse - Got Caught Dealin' Pt. 2 (We Got Money)
TTITLE3=Clipse - Grindin'
TTITLE4=Clipse - When The Last Time
TTITLE5=Clipse Feat. Faith Evans - Ma I Don't Love Her
TTITLE6=Clipse Feat. AB Liva and Roscoe P. - Got Damn
TTITLE7=Clipse Feat. Jermaine Dupri - Let's Talk About It
TTITLE8=Clipse - Gangsta Lean
TTITLE9=Clipse - Virginia
TTITLE10=Clipse - Pussy
TTITLE11=Fat Joe Feat. Armageddon - Murder Rap
TTITLE12=Fat Joe Feat. Cuban Link - Why Me
TTITLE13=Fat Joe Feat. R. Kelly - We Thuggin'
TTITLE14=Fat Joe Feat. Ja Rule and Ashanti - What's Luv?
TTITLE15=Fat Joe - My Lifestyle
TTITLE16=Fat Joe Feat. Remy - Opposites Attract (What They Like)
TTITLE17=Fat Joe - We Run This
TTITLE18=Fat Joe Feat. Tony Sunshine - It's Nothing
TTITLE19=Fat Joe Feat. Ginuwine - Crush Tonight
TTITLE20=Fat Joe Feat. Tony Sunshine - All I Need
TTITLE21=Fat Joe - Take A Look At My Life
TTITLE22=Fat Joe Feat. Remy and Tony Sunshine - TS Piece
TTITLE23=Fat Joe Feat. Baby and Scarface - Bust At You
TTITLE24=Fat Joe Feat. Lamajic - Born In The Ghetto
TTITLE25=Fat Joe - Gangsta
TTITLE26=Fat Joe - Oh Yeah
TTITLE27=Fat Joe - Can't Be Serious Feat. Remy
TTITLE28=Fabolous Feat. Nate Dogg - Can;t Deny It
TTITLE29=Fabolous - What's My Name
TTITLE30=Fabolous - Keepin' It Gangsta
TTITLE31=Fabolous - Right Now and Later On
TTITLE32=Fabolous - Young'n (Holla Back)
TTITLE33=Fabolous Feat. Jagged Edge - Trade It All
TTITLE34=Fabolous Feat. Paul Cain - Why Wouldn't I
TTITLE35=Fabolous Feat. Mike Shorey and Lil Mo - Can't Let You Go
TTITLE36=Fabolous - Damn
TTITLE37=Fabolous Feat. Mike Shorey - Make U Mine
TTITLE38=Fabolous - Now Ride
EXTD=
EXTT0=
EXTT1=
EXTT2=
EXTT3=
EXTT4=
EXTT5=
EXTT6=
EXTT7=
EXTT8=
EXTT9=
EXTT10=
EXTT11=
EXTT12=
EXTT13=
EXTT14=
EXTT15=
EXTT16=
EXTT17=
EXTT18=
EXTT19=
EXTT20=
EXTT21=
EXTT22=
EXTT23=
EXTT24=
EXTT25=
EXTT26=
EXTT27=
EXTT28=
EXTT29=
EXTT30=
EXTT31=
EXTT32=
EXTT33=
EXTT34=
EXTT35=
EXTT36=
EXTT37=
EXTT38=
PLAYORDER=
